<svg xmlns="http://www.w3.org/2000/svg" width="1100" height="443" viewBox="0 0 1100 443" font-family="Helvetica, Arial, sans-serif" font-size="20">
<defs><marker id="arr" markerWidth="8" markerHeight="8" refX="7" refY="4" orient="auto"><path d="M0,0 L8,4 L0,8 z" fill="#333"/></marker></defs>
<rect width="1100" height="443" fill="#ffffff"/>
<rect x="30" y="80" width="300" height="150" rx="8" fill="#e8f1fb" stroke="#2f6fd6" stroke-width="2"/>
<text x="44" y="112" font-size="22" font-weight="bold" fill="#1b4a99">GPQA prompt</text>
<text x="44" y="144" fill="#333">Which energy difference</text><text x="44" y="170" fill="#333">resolves two states with</text>
<text x="44" y="196" fill="#333">lifetimes 10⁻⁹ s and 10⁻⁸ s?</text><text x="44" y="222" fill="#333">Candidates A, B, C, D.</text>
<path d="M334,156 L366,156" fill="none" stroke="#2f6fd6" stroke-width="3" marker-end="url(#arr)"/>
<rect x="30" y="243" width="300" height="150" rx="8" fill="#fff4e5" stroke="#e08a1e" stroke-width="2"/>
<text x="44" y="275" font-size="22" font-weight="bold" fill="#8a4b00">Metanym game prompt</text>
<text x="44" y="307" fill="#333">Write a context template</text><text x="44" y="333" fill="#333">with slots and fill it in five</text>
<text x="44" y="359" fill="#333">distant domains, every</text><text x="44" y="385" fill="#333">sentence true.</text>
<path d="M334,318 L366,318" fill="none" stroke="#e08a1e" stroke-width="3" marker-end="url(#arr)"/>
<rect x="370" y="40" width="360" height="388" rx="14" fill="#f7f7f5" stroke="#555" stroke-width="2"/>
<text transform="translate(400,234) rotate(-90)" font-size="22" fill="#333" font-weight="bold" text-anchor="middle" letter-spacing="2">ARCHETYPES</text>
<text x="620" y="80" font-size="22" fill="#333" font-weight="bold" text-anchor="middle" letter-spacing="2">DOMAINS</text>
<rect x="420" y="100" width="112" height="112" fill="#d6e6fa" stroke="#2f6fd6" stroke-width="3.5"/>
<text x="476.0" y="165" font-size="26" font-weight="bold" fill="#1b4a99" text-anchor="middle">α</text>
<rect x="552" y="100" width="14" height="112" fill="#ffffff" stroke="#999" stroke-width="1"/>
<rect x="569" y="100" width="14" height="112" fill="#ffffff" stroke="#999" stroke-width="1"/>
<rect x="586" y="100" width="14" height="112" fill="#ffffff" stroke="#999" stroke-width="1"/>
<rect x="603" y="100" width="14" height="112" fill="#d6e6fa" stroke="#2f6fd6" stroke-width="2.5"/>
<rect x="620" y="100" width="14" height="112" fill="#ffffff" stroke="#999" stroke-width="1"/>
<rect x="637" y="100" width="14" height="112" fill="#ffffff" stroke="#999" stroke-width="1"/>
<rect x="654" y="100" width="14" height="112" fill="#ffffff" stroke="#999" stroke-width="1"/>
<rect x="420" y="262" width="112" height="112" fill="#ffe9cc" stroke="#e08a1e" stroke-width="3.5"/>
<text x="476.0" y="327" font-size="26" font-weight="bold" fill="#8a4b00" text-anchor="middle">β</text>
<rect x="552" y="262" width="14" height="112" fill="#ffe9cc" stroke="#e08a1e" stroke-width="2.5"/>
<rect x="569" y="262" width="14" height="112" fill="#ffe9cc" stroke="#e08a1e" stroke-width="2.5"/>
<rect x="586" y="262" width="14" height="112" fill="#ffe9cc" stroke="#e08a1e" stroke-width="2.5"/>
<rect x="603" y="262" width="14" height="112" fill="#ffe9cc" stroke="#e08a1e" stroke-width="2.5"/>
<rect x="620" y="262" width="14" height="112" fill="#ffe9cc" stroke="#e08a1e" stroke-width="2.5"/>
<rect x="637" y="262" width="14" height="112" fill="#ffffff" stroke="#999" stroke-width="1"/>
<rect x="654" y="262" width="14" height="112" fill="#ffffff" stroke="#999" stroke-width="1"/>
<rect x="671" y="262" width="14" height="112" fill="#ffffff" stroke="#999" stroke-width="1"/>
<path d="M730,156 L766,156" fill="none" stroke="#2f6fd6" stroke-width="3" marker-end="url(#arr)"/>
<rect x="770" y="80" width="300" height="150" rx="8" fill="#e8f1fb" stroke="#2f6fd6" stroke-width="2"/>
<text x="784" y="112" font-size="22" font-weight="bold" fill="#1b4a99">GPQA completion</text>
<text x="784" y="140" fill="#333">The derived instantiation,</text><text x="784" y="164" fill="#333">compared with the candidates:</text>
<rect x="784" y="180" width="14" height="40" fill="#d6e6fa" stroke="#2f6fd6" stroke-width="2.5"/>
<text x="804" y="207" font-size="22" fill="#333">≈</text>
<rect x="828" y="180" width="14" height="40" fill="#ffffff" stroke="#999" stroke-width="1"/>
<text x="846" y="207" font-size="16" fill="#666" font-weight="normal">A</text>
<rect x="872" y="180" width="14" height="40" fill="#d6e6fa" stroke="#2f6fd6" stroke-width="2.5"/>
<text x="890" y="207" font-size="16" fill="#1b4a99" font-weight="bold">B</text>
<rect x="916" y="180" width="14" height="40" fill="#ffffff" stroke="#999" stroke-width="1"/>
<text x="934" y="207" font-size="16" fill="#666" font-weight="normal">C</text>
<rect x="960" y="180" width="14" height="40" fill="#ffffff" stroke="#999" stroke-width="1"/>
<text x="978" y="207" font-size="16" fill="#666" font-weight="normal">D</text>
<path d="M730,318 L766,318" fill="none" stroke="#e08a1e" stroke-width="3" marker-end="url(#arr)"/>
<rect x="770" y="243" width="300" height="150" rx="8" fill="#fff4e5" stroke="#e08a1e" stroke-width="2"/>
<text x="784" y="275" font-size="22" font-weight="bold" fill="#8a4b00">Metanym game completion</text>
<text x="784" y="303" fill="#333">A context template and five</text><text x="784" y="327" fill="#333">instantiations, as metanym sets:</text>
<rect x="784" y="338" width="48" height="48" fill="#ffe9cc" stroke="#e08a1e" stroke-width="2.5"/><text x="808.0" y="370" font-size="22" font-weight="bold" fill="#8a4b00" text-anchor="middle">β</text>
<rect x="844" y="338" width="14" height="48" fill="#ffe9cc" stroke="#e08a1e" stroke-width="2.5"/>
<rect x="861" y="338" width="14" height="48" fill="#ffe9cc" stroke="#e08a1e" stroke-width="2.5"/>
<rect x="878" y="338" width="14" height="48" fill="#ffe9cc" stroke="#e08a1e" stroke-width="2.5"/>
<rect x="895" y="338" width="14" height="48" fill="#ffe9cc" stroke="#e08a1e" stroke-width="2.5"/>
<rect x="912" y="338" width="14" height="48" fill="#ffe9cc" stroke="#e08a1e" stroke-width="2.5"/>
</svg>